# xmcd CD database file
#
# Track frame offsets:
#	150
#	35203
#	64937
#	73041
#	108029
#	137415
#	143454
#	155590
#	191486
#	196849
#	221339
#	229272
#	234121
#	248414
#
# Disc length: 3359 seconds
#
# Revision: 0
# Processed by: cddbd v1.5.2PL0 Copyright (c) Steve Scherf et al.
# Submitted via: CDex 1.51
#
DISCID=b80d1d0e
DTITLE=Geggie trio and Donny McCaslin - Across the Sky
DYEAR=2007
DGENRE=Jazz
TTITLE0=The Eyes are Worth 1000 Words
TTITLE1=From Which
TTITLE2=Mica
TTITLE3=Scatterbrain Drain
TTITLE4=Septieme Arrondissement
TTITLE5=Brume
TTITLE6=Ruelles
TTITLE7=Or Not
TTITLE8=Les Jardins du Luxembourg
TTITLE9=Accross the Sky
TTITLE10=Le Marais
TTITLE11=Reflection
TTITLE12=Son of a Shoe
TTITLE13=Pompidou
EXTD=YEAR: 2007
EXTT0=
EXTT1=
EXTT2=
EXTT3=
EXTT4=
EXTT5=
EXTT6=
EXTT7=
EXTT8=
EXTT9=
EXTT10=
EXTT11=
EXTT12=
EXTT13=
PLAYORDER=
